<svg viewBox="0 0 72 72" xmlns="http://www.w3.org/2000/svg"><path d="m32.6 50.1c1 1.8 2.1 2.9 3.4 2.9 3.3 0 6-7.6 6-17 0-4.6-.6-8.8-1.7-11.8" fill="#9b9b9a"/><path d="m40.3 24.2c-1.1-3.2-2.6-5.2-4.3-5.2-3.3 0-6 7.6-6 17 0 5.9 1 11 2.6 14.1" fill="#d0cfce"/><circle cx="56" cy="56" fill="#fff" r="10"/><circle cx="16" cy="56" fill="#fff" r="10"/><circle cx="16" cy="16" fill="#fff" r="10"/><circle cx="56" cy="16" fill="#fff" r="10"/><g fill="none" stroke-linecap="round" stroke-linejoin="round" stroke-miterlimit="10"><ellipse cx="36" cy="36" rx="6" ry="17" stroke="#000" stroke-width="2"/><circle cx="56" cy="56" r="10" stroke="#000" stroke-width="2"/><path d="m42 42 6.9 6.9" stroke="#000" stroke-width="2"/><circle cx="16" cy="56" r="10" stroke="#000" stroke-width="2"/><path d="m30 42-6.9 6.9" stroke="#000" stroke-width="2"/><circle cx="16" cy="16" r="10" stroke="#000" stroke-width="2"/><path d="m30 30-6.9-6.9" stroke="#000" stroke-width="2"/><circle cx="56" cy="16" r="10" stroke="#000" stroke-width="2"/><path d="m42 30 6.9-6.9" stroke="#000" stroke-width="2"/><path d="m60.4 51.6-8.8 8.8" stroke="#000" stroke-width="2"/><path d="m11.6 51.6 8.8 8.8" stroke="#000" stroke-width="2"/><path d="m11.6 20.4 8.8-8.8" stroke="#000" stroke-width="2"/><path d="m60.4 20.4-8.8-8.8" stroke="#000" stroke-width="2"/><path d="m60.4 51.6-8.8 8.8" stroke="#9b9b9a" stroke-width="2.1"/><path d="m11.6 51.6 8.8 8.8" stroke="#9b9b9a" stroke-width="2.1"/><path d="m11.6 20.4 8.8-8.8" stroke="#9b9b9a" stroke-width="2.1"/><path d="m60.4 20.4-8.8-8.8" stroke="#9b9b9a" stroke-width="2.1"/></g></svg>